<svg width="126" height="32" viewBox="0 0 126 32" fill="none" xmlns="http://www.w3.org/2000/svg">
<path d="M119.296 21.2047C119.425 21.5777 119.489 21.9697 119.487 22.3642C119.485 23.1126 119.253 23.8425 118.823 24.455C118.392 25.0676 117.783 25.5332 117.079 25.7889C116.375 26.0446 115.609 26.0781 114.885 25.8848C114.161 25.6915 113.513 25.2808 113.031 24.7082L108.208 28.2498C109.464 29.8896 111.219 31.0789 113.208 31.6395C115.198 32.2 117.316 32.1016 119.245 31.359H119.27L119.46 31.2829C119.565 31.2412 119.668 31.1942 119.767 31.142C119.792 31.142 119.805 31.1172 119.83 31.1172C121.134 30.5128 122.285 29.6227 123.198 28.5132C124.11 27.4036 124.761 26.1031 125.101 24.7082C125.107 24.6598 125.12 24.6125 125.139 24.5674C125.481 23.0678 125.459 21.5082 125.076 20.0186V19.9673C124.999 19.7254 124.923 19.4951 124.833 19.2533L119.283 21.2163L119.296 21.2047Z" fill="#E40521"/>
<path d="M21.2352 9.22126C20.5766 8.47955 19.7558 7.89915 18.8365 7.525C17.7932 7.11352 16.6786 6.91199 15.557 6.93197C14.3721 6.9226 13.1972 7.14781 12.1 7.59457C11.0623 8.02654 10.1236 8.66514 9.3413 9.47139C8.54933 10.2936 7.92905 11.265 7.51657 12.3289C7.07605 13.4712 6.85543 14.6862 6.8663 15.9102C6.85445 17.1419 7.07505 18.3647 7.51657 19.5148C7.92524 20.5679 8.53673 21.5309 9.31642 22.3491C10.091 23.1635 11.0257 23.8094 12.0618 24.2464C13.098 24.6833 14.2133 24.902 15.338 24.8885C16.5821 24.9127 17.8145 24.6449 18.9361 24.1066C19.9669 23.5959 20.8566 22.8406 21.5272 21.9068L27.0412 25.7168C25.788 27.3495 24.1177 28.6152 22.2057 29.381C20.2975 30.159 18.2568 30.5617 16.1957 30.567C13.9936 30.5877 11.8034 30.2429 9.71454 29.5466C7.82761 28.9189 6.0842 27.9234 4.58539 26.6179C3.13687 25.3414 1.98626 23.7632 1.21461 21.9946C0.387934 20.0819 -0.0252726 18.0165 0.00199263 15.9334C-0.0324937 13.8502 0.381018 11.7839 1.21461 9.87393C1.98508 8.10502 3.13455 6.5263 4.58207 5.24896C6.08091 3.94347 7.82431 2.94801 9.71123 2.32025C11.8006 1.62382 13.9914 1.27898 16.194 1.29984C17.0829 1.30329 17.9702 1.37473 18.8482 1.51353C19.7703 1.65401 20.6765 1.88426 21.5537 2.20098C22.4532 2.52241 23.3135 2.94417 24.1183 3.45827C24.9446 3.99118 25.688 4.64253 26.3246 5.39142L21.2468 9.24611L21.2352 9.22126Z" fill="#112D63"/>
<path d="M27.4143 4.68943C27.4086 4.23234 27.5028 3.7795 27.6901 3.36241C27.8775 2.94532 28.1536 2.57399 28.4992 2.27424C29.2035 1.6144 30.1362 1.2523 31.1019 1.26377C32.0683 1.24319 33.0037 1.60457 33.7047 2.26927C34.0485 2.57142 34.3233 2.94395 34.5102 3.36155C34.6971 3.77915 34.7918 4.23203 34.7879 4.68943C34.7935 5.14652 34.6994 5.59936 34.5121 6.01645C34.3247 6.43354 34.0486 6.80487 33.703 7.10462C33.0004 7.76671 32.0661 8.12766 31.1003 8.11012C30.1335 8.13251 29.1974 7.77088 28.4975 7.10462C28.1552 6.80226 27.8815 6.43038 27.6947 6.01387C27.5079 5.59735 27.4123 5.14581 27.4143 4.68943ZM27.9252 10.7026H34.2786V29.8054H27.9252V10.7026Z" fill="#112D63"/>
<path d="M38.3047 9.2401H44.6581V12.5399H44.7476C45.3069 11.4066 46.1349 10.4268 47.1596 9.6857C48.2082 9.01536 49.4372 8.6818 50.6813 8.7299C51.0513 8.7299 51.4212 8.74315 51.7795 8.768C52.1237 8.79425 52.4649 8.84967 52.7997 8.93365V14.7314C52.3602 14.5967 51.9125 14.4905 51.4593 14.4134C51.0036 14.3397 50.5424 14.3054 50.0808 14.3107C49.0938 14.2654 48.1091 14.4397 47.1978 14.8209C46.5319 15.1314 45.9661 15.6214 45.5638 16.2355C45.1647 16.9007 44.9124 17.6434 44.824 18.4138C44.7061 19.3389 44.6507 20.2709 44.6581 21.2034V29.7907H38.3047V9.2401Z" fill="#112D63"/>
<path d="M68.1707 15.889C67.8312 15.4136 67.3801 15.0285 66.8569 14.7675C66.2942 14.4726 65.6677 14.3196 65.0322 14.3219C64.3405 14.2824 63.6484 14.3903 63.0017 14.6385C62.355 14.8867 61.7686 15.2695 61.2816 15.7614C60.3594 16.7961 59.8785 18.1496 59.9412 19.5333C59.8803 20.9164 60.3604 22.269 61.2799 23.3051C61.767 23.7971 62.3534 24.1799 63 24.4281C63.6467 24.6763 64.3389 24.7842 65.0305 24.7447C65.6694 24.7617 66.3007 24.603 66.8553 24.2858C67.3475 23.9912 67.7908 23.6218 68.1691 23.1908L72.3676 27.5872C71.4047 28.5878 70.2006 29.3247 68.8708 29.7274C67.6281 30.1201 66.3339 30.3261 65.0305 30.3387C63.5084 30.3491 61.9965 30.09 60.5649 29.5734C59.2161 29.0955 57.9757 28.3551 56.9155 27.3951C55.8777 26.4402 55.0481 25.2819 54.4786 23.9926C53.8654 22.5916 53.561 21.0753 53.5862 19.5465C53.561 18.0178 53.8654 16.5015 54.4786 15.1005C55.0487 13.811 55.8788 12.6528 56.9171 11.698C57.9774 10.738 59.2178 9.9976 60.5666 9.51969C61.9985 9.00429 63.5102 8.74522 65.0322 8.75439C66.3354 8.76887 67.6293 8.97483 68.8724 9.36564C70.2023 9.76828 71.4064 10.5052 72.3693 11.5058L68.1707 15.9022V15.889Z" fill="#112D63"/>
<path d="M74.0811 0H80.4344V29.8039H74.0811V0Z" fill="#112D63"/>
<path d="M103.154 26.249C102.133 27.5482 100.81 28.58 99.3006 29.2556C97.7833 29.9501 96.1342 30.3105 94.4651 30.3124C92.9429 30.3228 91.431 30.0637 89.9995 29.5471C88.6507 29.0691 87.4103 28.3287 86.35 27.3688C85.3118 26.4145 84.4817 25.2568 83.9115 23.968C83.2982 22.567 82.9939 21.0507 83.019 19.5219C82.9939 17.9931 83.2982 16.4768 83.9115 15.0759C84.481 13.7866 85.3106 12.6283 86.3483 11.6734C87.4086 10.7134 88.649 9.97304 89.9978 9.49509C91.4297 8.97969 92.9414 8.72061 94.4634 8.72978C95.8369 8.71153 97.1998 8.97189 98.4695 9.49509C99.638 9.9812 100.681 10.726 101.518 11.6734C102.381 12.668 103.036 13.8248 103.444 15.0759C103.911 16.5112 104.139 18.013 104.121 19.5219V21.5097H89.3708C89.5766 22.6385 90.1617 23.6634 91.0296 24.4152C91.9086 25.1463 93.0247 25.5315 94.1681 25.4986C95.1026 25.5305 96.0257 25.2867 96.8223 24.7979C97.5529 24.3148 98.192 23.7063 98.7101 23.0006L103.162 26.2623L103.154 26.249ZM97.7794 17.2028C97.8028 16.6961 97.7208 16.19 97.5387 15.7165C97.3565 15.2429 97.0782 14.8122 96.7211 14.4514C96.3535 14.0723 95.9104 13.7744 95.4204 13.5769C94.9303 13.3795 94.4043 13.2869 93.8762 13.3051C92.6804 13.2799 91.5204 13.7132 90.6348 14.516C90.2617 14.8627 89.9587 15.2777 89.7423 15.7385C89.5297 16.1995 89.4085 16.6974 89.3857 17.2045L97.7794 17.2028Z" fill="#112D63"/>
<path d="M106.23 9.58126C106.225 11.7051 106.935 13.7689 108.245 15.442C108.27 15.4668 108.283 15.4933 108.308 15.5182L108.499 15.7468C108.562 15.8097 108.613 15.8876 108.678 15.9505C108.738 16.0172 108.802 16.0808 108.869 16.141C108.792 16.2172 108.831 16.1659 108.766 16.2305C107.137 17.9878 106.234 20.296 106.239 22.6909V22.7157H112.211V22.6942C112.211 22.5534 112.249 22.2486 112.249 22.2486C112.342 21.5379 112.647 20.8716 113.125 20.3371C113.603 19.8027 114.232 19.425 114.929 19.2536C115.23 19.186 115.539 19.1559 115.848 19.1642C117.673 19.1649 119.461 18.6447 121.001 17.6648C122.541 16.6849 123.768 15.2861 124.538 13.6331L124.563 13.5817C125.202 12.1822 125.495 10.6499 125.418 9.11377C125.34 7.57762 124.895 6.08248 124.118 4.75405C123.342 3.42561 122.258 2.30272 120.956 1.47977C119.655 0.656822 118.175 0.157872 116.64 0.0248674H116.616C116.488 0.0248674 116.347 0.0116154 116.221 1.98154e-05H115.838C114.207 -0.00331282 112.603 0.413781 111.181 1.21093H111.156L114.066 6.43555H114.091C114.091 6.43555 114.104 6.4107 114.116 6.4107H114.129C114.229 6.35852 114.331 6.31152 114.436 6.2699C114.88 6.08437 115.357 5.9892 115.839 5.98995H115.864C115.967 5.98797 116.069 5.9924 116.171 6.0032C116.218 6.00123 116.266 6.00569 116.312 6.01645C116.364 6.01855 116.415 6.02689 116.465 6.0413C117.211 6.17172 117.898 6.53262 118.429 7.07323C118.959 7.61383 119.307 8.30694 119.422 9.05503C119.538 9.80313 119.416 10.5686 119.073 11.2437C118.73 11.9187 118.184 12.4695 117.511 12.8185C116.838 13.1675 116.073 13.2971 115.323 13.1891C114.573 13.0811 113.875 12.7409 113.329 12.2165C112.782 11.692 112.414 11.0096 112.276 10.2653C112.138 9.52103 112.237 8.75227 112.56 8.06721L107.149 5.56754V5.59239C106.55 6.83273 106.236 8.191 106.23 9.56801" fill="#E40521"/>
</svg>
